#!OML:ASF X:\für Bonn\!DataBase\2005_08_12_Daniel\c3d\Daniel.ASF
:FULLY-SPECIFIED
:DEGREES
168
root 3.40687 14.8913 4.33402 707.642 -140.916 0.133237
lowerback 42.0893 -3.26813 -0.332971
upperback 13.4461 -8.21011 -1.38659
thorax -5.0051 -5.48672 1.99915
lowerneck 0.288787 4.09111 1.73631
upperneck 2.44092 5.51889 -5.14837
head 0.915571 2.71463 -1.85371
rclavicle 1.03368e-014 -7.95139e-016
rhumerus -43.4744 8.59014 -90.3359
rradius 115.911
rwrist 8.77067
rhand -37.3076 10.3985
rfingers 7.12502
rthumb -10.3714 -19.3258
lclavicle 1.03368e-014 -7.95139e-016
lhumerus 157.658 171.117 264.442
lradius 104.193
lwrist -23.2995
lhand -33.1569 2.72868
lfingers 7.12502
lthumb -6.36564 32.613
rfemur -44.4866 4.29391 23.5972
rtibia 52.0506
rfoot -4.73866 3.30704
rtoes -9.30073
lfemur 12.5704 9.27722 -19.7278
ltibia 64.2086
lfoot -39.8385 -9.02497
ltoes -3.59795
169
root 3.29259 14.8805 4.22061 707.792 -140.964 0.329832
lowerback 42.2356 -3.48691 0.0839851
upperback 13.4313 -8.31675 -1.33296
thorax -5.0902 -5.52754 1.90068
lowerneck 0.37231 4.15239 1.77538
upperneck 2.13686 5.59586 -5.30824
head 0.815678 2.75891 -1.9156
rclavicle 1.74931e-014 -1.35174e-014
rhumerus -43.5419 8.46517 -90.22
rradius 116.24
rwrist 9.08265
rhand -37.6015 10.3163
rfingers 7.12502
rthumb -10.6549 -19.3935
lclavicle 1.74931e-014 -1.35174e-014
lhumerus 157.579 170.936 264.521
lradius 104.341
lwrist -23.663
lhand -33.1771 2.78218
lfingers 7.12502
lthumb -6.38516 32.6659
rfemur -44.97 3.99703 23.8277
rtibia 53.1877
rfoot -4.62561 3.56168
rtoes -8.69044
lfemur 12.9827 9.1183 -19.7854
ltibia 63.8848
lfoot -39.4369 -8.66442
ltoes -3.9157
170
root 3.18376 14.8753 4.10807 707.936 -141.027 0.575734
lowerback 42.4045 -3.65022 0.447637
upperback 13.3944 -8.36558 -1.19854
thorax -5.18948 -5.54449 1.8943
lowerneck 0.391678 4.1877 1.82264
upperneck 1.91739 5.64006 -5.55813
head 0.755569 2.78343 -2.00668
rclavicle -7.55382e-014 -8.90555e-014
rhumerus -43.5463 8.3433 -89.9719
rradius 116.491
rwrist 9.30308
rhand -37.9408 10.3608
rfingers 7.12502
rthumb -10.9821 -19.3319
lclavicle -7.55382e-014 -8.90555e-014
lhumerus 157.601 170.738 264.725
lradius 104.336
lwrist -24.0792
lhand -33.3329 2.77359
lfingers 7.12502
lthumb -6.53559 32.6527
rfemur -45.406 3.79314 24.0925
rtibia 54.2375
rfoot -4.58196 3.74071
rtoes -8.24025
lfemur 13.3143 8.93216 -19.8299
ltibia 63.5638
lfoot -38.9563 -8.23536
ltoes -4.35332
171
root 3.0747 14.8759 3.99511 708.123 -141.073 0.767882
lowerback 42.5588 -3.82279 0.775322
upperback 13.3649 -8.44238 -1.09386
thorax -5.27658 -5.57535 1.88441
lowerneck 0.362596 4.25281 1.79675
upperneck 1.73106 5.72352 -5.73141
head 0.710748 2.82668 -2.05852
rclavicle -8.90555e-014 2.38542e-015
rhumerus -43.5173 8.27824 -89.7707
rradius 116.704
rwrist 9.51313
rhand -38.2662 10.4
rfingers 7.12502
rthumb -11.296 -19.2758
lclavicle -8.90555e-014 2.38542e-015
lhumerus 157.691 170.518 264.865
lradius 104.298
lwrist -24.4064
lhand -33.3701 2.79454
lfingers 7.12502
lthumb -6.57152 32.6726
rfemur -45.7826 3.54389 24.3221
rtibia 55.2111
rfoot -4.57504 3.99904
rtoes -7.65594
lfemur 13.5957 8.70589 -19.9847
ltibia 63.2249
lfoot -38.3703 -7.70458
ltoes -4.84371
172
root 2.96684 14.882 3.88214 708.322 -141.129 0.980777
lowerback 42.7322 -4.00163 1.14162
upperback 13.3167 -8.50571 -1.0037
thorax -5.39521 -5.59548 1.83891
lowerneck 0.265824 4.29865 1.69694
upperneck 1.54709 5.78018 -5.8208
head 0.671825 2.8559 -2.06893
rclavicle 1.19271e-014 -1.27222e-014
rhumerus -43.4323 8.19995 -89.5496
rradius 116.82
rwrist 9.65321
rhand -38.5888 10.3983
rfingers 7.12502
rthumb -11.6072 -19.2602
lclavicle 1.19271e-014 -1.27222e-014
lhumerus 157.735 170.339 264.957
lradius 104.269
lwrist -24.6568
lhand -33.4276 2.66894
lfingers 7.12502
lthumb -6.62697 32.5452
rfemur -46.1213 3.29607 24.5857
rtibia 56.0973
rfoot -4.66441 4.27679
rtoes -7.49819
lfemur 13.8261 8.45807 -20.1492
ltibia 62.8961
lfoot -37.6406 -7.13682
ltoes -5.14974
173
root 2.85756 14.8915 3.76839 708.525 -141.179 1.16162
lowerback 42.9096 -4.17273 1.50504
upperback 13.2705 -8.56055 -0.921425
thorax -5.51306 -5.61211 1.78398
lowerneck 0.145043 4.35332 1.56388
upperneck 1.36027 5.84804 -5.91664
head 0.635708 2.89013 -2.07495
rclavicle 5.80451e-014 3.4191e-014
rhumerus -43.2907 8.08648 -89.2865
rradius 116.894
rwrist 9.71331
rhand -38.8567 10.4958
rfingers 7.12502
rthumb -11.8655 -19.148
lclavicle 5.80451e-014 3.4191e-014
lhumerus 157.685 170.255 264.988
lradius 104.344
lwrist -24.8952
lhand -33.421 2.72442
lfingers 7.12502
lthumb -6.6206 32.6009
rfemur -46.4007 2.9786 24.8267
rtibia 56.9257
rfoot -4.79846 4.68578
rtoes -7.19697
lfemur 14.0419 8.23082 -20.3385
ltibia 62.5855
lfoot -36.7728 -6.55478
ltoes -5.523
174
root 2.74929 14.9044 3.65533 708.716 -141.247 1.39743
lowerback 43.0588 -4.34615 1.87742
upperback 13.2159 -8.60816 -0.826495
thorax -5.63074 -5.62452 1.73405
lowerneck 0.0189135 4.41017 1.40763
upperneck 1.2544 5.9211 -6.00098
head 0.62486 2.92508 -2.07212
rclavicle 5.88403e-014 -4.69132e-014
rhumerus -43.1776 8.06477 -89.0419
rradius 116.928
rwrist 9.85732
rhand -39.1562 10.3288
rfingers 7.12502
rthumb -12.1543 -19.2981
lclavicle 5.88403e-014 -4.69132e-014
lhumerus 157.701 170.115 265.013
lradius 104.332
lwrist -25.0092
lhand -33.3282 2.70336
lfingers 7.12502
lthumb -6.53105 32.5827
rfemur -46.6492 2.70412 25.1124
rtibia 57.6932
rfoot -5.03656 5.08213
rtoes -7.13998
lfemur 14.1694 8.06794 -20.4077
ltibia 62.3557
lfoot -35.7322 -6.07839
ltoes -5.65053
175
root 2.64069 14.9199 3.54078 708.906 -141.319 1.57755
lowerback 43.2238 -4.48472 2.18214
upperback 13.1639 -8.64285 -0.751885
thorax -5.74683 -5.63286 1.69272
lowerneck 0.0555958 4.4773 1.37366
upperneck 1.04977 6.00346 -6.12948
head 0.561448 2.96982 -2.11011
rclavicle -5.56597e-015 -7.23576e-014
rhumerus -43.051 7.94298 -88.8605
rradius 116.921
rwrist 9.95447
rhand -39.3587 10.3789
rfingers 7.12502
rthumb -12.3495 -19.2363
lclavicle -5.56597e-015 -7.23576e-014
lhumerus 157.61 170.001 265.008
lradius 104.408
lwrist -25.0711
lhand -33.143 2.86349
lfingers 7.12502
lthumb -6.35226 32.7482
rfemur -46.8164 2.34961 25.3789
rtibia 58.4188
rfoot -5.28707 5.5796
rtoes -7.03301
lfemur 14.2925 7.98215 -20.4418
ltibia 62.2059
lfoot -34.6398 -5.67346
ltoes -5.74311
